<svg width="48" height="48" viewBox="0 0 48 48" fill="none" xmlns="http://www.w3.org/2000/svg">
<path d="M12 13.5H6C5.20435 13.5 4.44129 13.8161 3.87868 14.3787C3.31607 14.9413 3 15.7044 3 16.5V34.5H6V27H12V34.5H15V16.5C15 15.7044 14.6839 14.9413 14.1213 14.3787C13.5587 13.8161 12.7956 13.5 12 13.5ZM6 24V16.5H12V24H6ZM33 16.5H37.5V31.5H33V34.5H45V31.5H40.5V16.5H45V13.5H33V16.5ZM21 34.5H18V13.5H27C27.7956 13.5 28.5587 13.8161 29.1213 14.3787C29.6839 14.9413 30 15.7044 30 16.5V24C30 24.7956 29.6839 25.5587 29.1213 26.1213C28.5587 26.6839 27.7956 27 27 27H21V34.5ZM21 24H27V16.5H21V24Z" fill="black"/>
</svg>
