<svg width="78" height="78" viewBox="0 0 78 78" fill="none" xmlns="http://www.w3.org/2000/svg">
<g clip-path="url(#clip0_42_2)">
<path fill-rule="evenodd" clip-rule="evenodd" d="M49.988 56.8958C47.6379 58.3388 45.0266 59.3047 42.3031 59.7385C39.5797 60.1723 36.7975 60.0654 34.1154 59.4239C31.4333 58.7825 28.9038 57.619 26.6713 56C24.4388 54.381 22.5471 52.3381 21.1041 49.9879C19.6611 47.6378 18.6952 45.0265 18.2614 42.3031C17.8276 39.5796 17.9345 36.7974 18.576 34.1153C19.2174 31.4332 20.3809 28.9037 21.9999 26.6712C23.619 24.4387 25.6619 22.547 28.012 21.104C32.7583 18.1898 38.4678 17.2804 43.8846 18.5759C49.3014 19.8714 53.9817 23.2656 56.8959 28.0119C59.8101 32.7582 60.7195 38.4677 59.424 43.8845C58.1285 49.3013 54.7343 53.9816 49.988 56.8958V56.8958ZM49.4492 51.5589C52.4684 49.0458 54.481 45.5291 55.1184 41.6529C55.7558 37.7767 54.9753 33.8007 52.9199 30.4531C50.8645 27.1056 47.6718 24.6106 43.9267 23.4253C40.1816 22.24 36.1348 22.4438 32.5277 23.9992L37.5333 32.1518C38.9498 31.8477 40.4258 31.9905 41.7578 32.5605C43.0897 33.1305 44.2121 34.0996 44.9702 35.3343C45.7282 36.5689 46.0847 38.0083 45.9904 39.454C45.896 40.8997 45.3556 42.2806 44.4436 43.4063L49.4492 51.5589ZM28.5508 26.441C25.5274 28.9525 23.511 32.4699 22.8713 36.3479C22.2316 40.2259 23.0116 44.2046 25.0681 47.5541C27.1247 50.9035 30.3199 53.3992 34.0678 54.5833C37.8156 55.7674 41.8647 55.5606 45.4723 54.0007L40.4667 45.8481C39.0502 46.1521 37.5742 46.0093 36.2422 45.4393C34.9103 44.8693 33.7879 43.9002 33.0298 42.6656C32.2718 41.4309 31.9153 39.9916 32.0096 38.5458C32.104 37.1001 32.6444 35.7192 33.5564 34.5935L28.5508 26.441ZM40.9884 37.779C40.6646 37.2517 40.1446 36.8745 39.5427 36.7306C38.9409 36.5866 38.3065 36.6877 37.7791 37.0115C37.2517 37.3353 36.8746 37.8553 36.7307 38.4572C36.5867 39.0591 36.6878 39.6935 37.0116 40.2208C37.3354 40.7482 37.8554 41.1253 38.4573 41.2693C39.0591 41.4132 39.6935 41.3122 40.2209 40.9884C40.7483 40.6646 41.1254 40.1445 41.2693 39.5427C41.4133 38.9408 41.3122 38.3064 40.9884 37.779V37.779Z" fill="white"/>
</g>
<defs>
<clipPath id="clip0_42_2">
<rect width="56" height="56" fill="white" transform="translate(29.7895 77.5118) rotate(-121.55)"/>
</clipPath>
</defs>
</svg>
