<svg width="900" height="342" viewBox="0 0 900 342" fill="none" xmlns="http://www.w3.org/2000/svg">
<path d="M476.8 43.8C473.6 45.7 467 52.4 456.9 64C448.6 73.6 439.1 84.5 435.9 88.1L430.1 94.7L433.5 98.8C435.4 101 437 103.1 437 103.4C437 103.7 435.3 104.8 433.3 105.9L429.5 107.8L412.1 92.2L394.8 76.6L390.2 79C387.7 80.4 384.8 82.4 383.7 83.5C381.7 85.5 381.7 85.5 382.3 81.7C382.6 79.5 382.5 78 381.9 78C379 78 325.7 95.6 320.8 98.2L315.2 101.2L315.6 108.8C315.9 113.1 316.3 119.8 316.6 123.8C317.2 132 316.4 131.4 324.5 129.4C326.8 128.8 327 129.1 327 132.1V135.5L322.3 135.2C316 134.7 305 137.3 297.9 141L292.1 143.9L292.7 137.2C294.6 113.9 275.5 92.1 249 87.5C220.3 82.5 188.6 89.9 157 109C149 113.9 140.1 121.4 140 123.4C140 124.1 164.3 166.5 166.6 169.8C166.7 170 169.1 169.1 171.9 167.9C174.8 166.7 177.2 165.9 177.4 166.1C177.6 166.3 181.4 174.8 185.8 185C200.7 219.5 221.2 266.5 221.3 266.6C221.4 266.7 231 263.7 242.5 259.9C255.9 255.6 265.4 252 268.7 249.8C271.6 248 274 246.2 274 245.9C274 245.5 272.2 238.6 270.1 230.4C267.9 222.2 266.3 215.4 266.5 215.2C266.6 215.1 268.2 216.9 270.1 219.3C283.2 236.4 308.5 239.1 328 225.5L334.5 221L335.1 228C335.4 231.8 335.9 235.3 336.3 235.6C336.7 236 345.7 235 356.4 233.5C372 231.2 376.9 230.1 380.7 228.1L385.5 225.5L385.8 212.7C385.9 205.7 386.2 200 386.3 200C386.4 200 402.9 208.1 423 218.1L459.4 236.2L464.7 233.5L470 230.8V213.7V196.5L475.2 195.2C478.1 194.6 483.2 192.7 486.7 191.1C490.2 189.4 493 188.4 493 188.8C493 189.2 492.3 193.3 491.5 197.9C490.7 202.6 490.1 206.5 490.3 206.6C490.4 206.7 500.5 208.4 512.7 210.4L534.8 214.1L539 212C541.3 210.8 543.3 210 543.4 210.2C543.6 210.4 545.2 213.3 547.1 216.8C548.9 220.2 550.8 223 551.3 223C551.7 223 553.4 222.3 555 221.5L557.9 220L558.5 224.3L559.2 228.6L584.7 233.2L610.2 237.9L615.2 235.2L620.1 232.5L619.5 226.3C618.9 220.1 618.9 220.1 621.7 219.5C623.2 219.1 626.5 218.2 628.9 217.4C631.4 216.6 633.4 216.1 633.5 216.3C633.6 216.4 633.2 220.2 632.7 224.7C632.1 229.3 631.9 233.2 632.1 233.5C632.4 233.7 639.1 234.9 647.1 236C655 237.1 662.4 238.3 663.6 238.5C665.4 238.9 665.7 239.8 665.9 245.7C666 249.4 666.2 252.5 666.3 252.6C666.4 252.7 674.3 255.3 683.8 258.4L701 264L704.8 262.1C706.8 261 709.3 259.6 710.2 258.8C711.3 258 720.8 231 735 188.7C747.7 150.8 758 119.7 757.8 119.6C757.6 119.5 746.9 116.8 733.8 113.6C711.2 108.1 710.1 107.9 707.1 109.4C703 111.6 702 111.4 702 108.6C702 105.6 704.5 106.4 671.7 99.1L644.9 93.2L639.9 96L634.8 98.8L634.9 112.6L635.1 126.5L627.6 127.7C621.8 128.7 611.2 132.5 606 135.7C605.7 135.9 603.7 124.1 601.5 109.5L597.5 83L580.3 82.9C570.8 82.8 562.4 82.7 561.8 82.6C561.1 82.5 557.7 83.9 554.3 85.8L548.1 89.1L534.3 88.7C520.6 88.3 520.5 88.3 514.8 91.3C508.9 94.3 509 94.2 507.4 103.2L506.8 107L503.7 104.4C497.5 99.2 484.3 94 477.1 94C475.1 94 474 93.6 474.5 93.1C475.1 92.6 482 88.8 490 84.5C498 80.3 504.9 76.4 505.3 76C506.3 75.1 484 41.1 482.5 41C482 41 479.4 42.3 476.8 43.8ZM486.9 65C489.7 68.8 492 72.3 492 72.7C492 73.2 484.4 77.2 475.2 81.6C461.2 88.5 458.3 89.6 457.1 88.5C455.9 87.4 457.6 84.9 468 72.6C474.7 64.6 480.6 58 481 58C481.5 58 484.1 61.1 486.9 65ZM371.6 114.2C371.9 122.4 372.5 129 372.9 128.9C373.2 128.9 378.2 122.3 383.8 114.2C389.5 106.1 395.1 98.3 396.3 96.9L398.5 94.2L410.5 105.6L422.4 117L415.5 124.3C411.6 128.2 403.8 136.3 398.1 142.2C392.3 148.1 387.9 153.2 388.2 153.5C388.5 153.8 395.7 156.9 404.3 160.3C418.9 166.2 420.1 166.9 423.1 171C424.9 173.5 428 177 429.9 178.8C434.7 183.3 447.9 189.7 454 190.5L459 191.2V202.1C459 208.1 458.8 213 458.5 213C458.2 213 439.9 203.9 417.7 192.8C395.6 181.6 377.2 172.4 376.8 172.2C376.3 172 376 181.7 376 193.8V215.7L365.9 216.9C360.3 217.6 355.7 218 355.5 217.8C355.3 217.6 355 213.4 354.9 208.5C354.6 200.4 354.9 198.9 357.6 193C360.2 187.1 360.5 185.5 360.5 175.5C360.5 165.7 360.2 163.9 357.8 158.8C356.3 155.6 353.9 151.4 352.4 149.4C349.9 146.1 349.6 144.7 348.4 130.7C347.7 122.3 347.1 114.2 347 112.6C347 109.6 347.6 109.6 339.4 111.6C337 112.2 336.9 112.1 337.2 108L337.5 103.7L353.5 98.9L369.5 94.2L370.2 96.8C370.6 98.3 371.2 106.1 371.6 114.2ZM588.5 96.2C588.8 97.5 590.5 108.7 592.4 121.2L595.8 144L591.6 150.3C585.7 159 583.5 166.5 583.6 177C583.7 190.9 589.3 201.8 599.9 208.7C605.1 212 608.2 216.1 606.7 217.6C606.1 218.2 584 215.1 581.5 214.1C579.7 213.4 579.1 210.6 576 189.1C574.1 175.9 572.3 165 571.9 165C571.5 165 569.4 170 567.1 176.2C564.8 182.4 562.5 188.1 562 188.9C561.1 190.5 560.3 189.1 549.3 165C546.9 159.7 545.7 157.9 545.1 159C544.7 159.8 543.1 168.7 541.5 178.7C538.8 195.9 538.5 196.9 536.6 196.5C535.4 196.3 529.8 195.3 524 194.4C518.2 193.4 513.4 192.6 513.3 192.5C513.2 192.4 513.9 187.5 514.9 181.6L516.7 170.8L522.6 164.8L528.5 158.8L524.2 155.1L520 151.4L524.5 125.6C527 111.4 529 99.6 529 99.4C529 99.2 534.9 99 542 99C549.2 99 555 99.2 555 99.3C555 99.5 556.1 105.7 557.4 113.1C558.8 120.5 560.2 128.7 560.6 131.3C560.9 134 561.6 135.8 562 135.3C562.3 134.9 563.9 127.3 565.4 118.5C566.9 109.7 568.6 100.6 569.2 98.2L570.2 94H579.1C587.5 94 588 94.1 588.5 96.2ZM247.2 99.1C260.6 101.4 272.5 109.9 278.1 120.8C281.2 126.9 281.8 137.4 279.6 145.1C276.1 157 264.9 171.7 252.4 180.6L246.3 185L252.5 209.2C255.9 222.6 259 234.7 259.3 236.1C259.9 238.6 259.6 238.8 254.2 240.5C251.1 241.5 246.2 243.1 243.3 244.1L238.1 245.8L215.5 194.7C203 166.5 192.5 143 192.1 142.4C191.7 141.6 189.8 142 185.8 143.9L180 146.7L172.5 134C168.4 127 164.8 120.6 164.5 119.7C163.4 116.9 186.7 105.9 203.1 101.5C219.7 97.1 232.2 96.4 247.2 99.1ZM487 107.8C490 109 494.7 111.9 497.5 114.3L502.5 118.7L497.5 124.3C494.7 127.4 486.9 135.8 480.1 143L467.8 156H471.9C477.7 156 485.7 152.7 490.1 148.4C494.4 144.2 494.1 144 504 153.3C511.2 160 511.3 160 509.4 162.1C506.3 165.6 496.2 172.1 490.1 174.5C463.3 185.3 438.5 178.9 429.5 158.8C425.8 150.5 425.6 139.5 429 130.5C433.1 119.8 444.8 110.3 458.3 106.5C465.7 104.4 479.9 105.1 487 107.8ZM673.2 110.6C682.7 112.6 690.7 114.6 691 115.1C691.3 115.5 694.2 128.8 697.4 144.5C700.7 160.2 703.6 172.8 703.9 172.5C704.1 172.2 707.2 160.7 710.6 146.9C713.9 133.2 717 121.7 717.3 121.4C717.8 120.9 738.9 125.2 742.7 126.5C743.5 126.8 737.4 146.3 724.3 185.7C713.5 218 704.7 244.6 704.6 244.7C704.5 244.8 700.3 243.7 695.3 242.2L686.2 239.6L685.6 233.6C685.3 230.4 684.9 218.4 684.9 207.1C684.8 195.8 684.5 182 684.1 176.5L683.5 166.5L678.5 194.2L673.5 222L670.5 221.9C668.9 221.9 664.4 221.3 660.5 220.6L653.5 219.4L653.8 212C654.1 204.9 654.4 204.3 657.9 200.5C663.3 194.9 667.3 188.5 670 181.5C671.9 176.7 672.4 173.6 672.4 166C672.4 154.9 670.1 147.8 664.4 141.2C660.9 137.1 660.9 137 661.5 129.8C661.8 125.8 662.3 121.5 662.6 120.3C662.9 118.6 662.4 118 659.2 117.3C655.6 116.5 655.5 116.3 655.2 111.7C655 109.1 655.1 107 655.3 107C655.6 107 663.6 108.6 673.2 110.6ZM647.7 140.6C653.3 143.3 656.9 146.9 660.3 153.4C662 156.7 662.4 159.2 662.4 166C662.4 173.5 662.1 175.2 659.2 181.1C647.8 204.6 618.3 213.2 602.2 197.7C589.9 185.9 591.1 165.3 604.9 150.7C616.9 138 634.2 133.9 647.7 140.6ZM415.4 147.2L416.1 154L411.3 151.9C408.7 150.8 406.3 149.6 406 149.4C405.6 149 414.1 140.1 414.6 140.4C414.7 140.5 415 143.5 415.4 147.2ZM334.1 147.1C344.4 151.6 351 162.5 351 175C351 198.6 326 220.3 303.6 216.1C277 211.2 270.3 177.9 291.9 157.1C304.4 145 320.4 141.2 334.1 147.1Z" fill="white"/>
<path d="M234.7 130.6C231 131.7 230 132.5 230.4 133.8C230.7 134.7 233.5 143.8 236.6 154C239.7 164.2 242.3 172.6 242.5 172.8C242.9 173.3 254 164.1 256.7 161.1C260 157.3 262.3 149.6 261.7 144.4C260.4 132.5 248.2 126.3 234.7 130.6ZM247.6 143.6C249.8 145.7 250.1 146.9 249.8 150.5C249.6 154.1 249.7 154.6 250.9 153.7C252.1 152.7 252.2 152.8 251.2 154.6C250.6 155.7 249.4 157.2 248.6 157.9C246.8 159.4 247.2 160.2 243.6 148.7C241.3 141.2 241.3 141 243.2 141C244.2 141 246.2 142.1 247.6 143.6Z" fill="white"/>
<path d="M455.3 123C448.5 126.9 445.6 132.1 445.6 140.1C445.7 145.9 447.8 150.7 451.9 154.4C454.1 156.4 451.9 158.5 470.4 137.6C481.1 125.6 481.1 125.3 473.5 121.9C467.4 119.1 461.4 119.5 455.3 123ZM465.7 130.8C466.4 131.3 464.7 134 460.5 138.7C457 142.7 453.9 145.6 453.7 145.2C451.3 141 453.4 131.6 456.8 130.7C459.6 129.9 464.4 130 465.7 130.8Z" fill="white"/>
<path d="M622.4 145.4C616 148.2 612 154 612 160.5C612 176.5 633.9 184.4 644.3 172.1C648.3 167.3 649.6 161.9 648 156.7C647 153.7 646.5 153.1 646.3 154.5C644.6 163.2 634.8 167.1 628.2 161.5C622.2 156.5 623.3 149.1 630.4 145.9L634.5 144L630 144.1C627.5 144.1 624.1 144.7 622.4 145.4Z" fill="white"/>
<path d="M310.5 153.9C305.4 156.3 302.5 159.5 301 164.5C297.8 175.2 306.7 186 318.6 186C331.6 186 340.6 173.5 335.8 162.3L334.6 159.5L334.2 162.7C333.1 172.6 318.2 175 313.5 166C310.7 160.7 314.1 154.4 320.5 152.7C321.6 152.5 320.7 152.2 318.5 152.1C316.3 152.1 312.7 152.9 310.5 153.9Z" fill="white"/>
</svg>
